<?xml version="1.0" standalone="no"?>
<!DOCTYPE svg PUBLIC "-//W3C//DTD SVG 20010904//EN"
 "http://www.w3.org/TR/2001/REC-SVG-20010904/DTD/svg10.dtd">
<svg version="1.0" xmlns="http://www.w3.org/2000/svg"
 width="300.000000pt" height="300.000000pt" viewBox="0 0 300.000000 300.000000"
 preserveAspectRatio="xMidYMid meet">
<metadata>
Created by potrace 1.10, written by Peter Selinger 2001-2011
</metadata>
<g transform="translate(0.000000,300.000000) scale(0.100000,-0.100000)"
fill="#000000" stroke="none">
<path d="M503 2682 c-100 -35 -171 -115 -193 -216 -8 -36 -10 -333 -8 -996 l3
-945 28 -57 c32 -64 80 -111 146 -142 46 -21 51 -21 1021 -21 l975 0 57 28
c64 32 111 80 142 146 21 46 21 51 21 1021 0 970 0 975 -21 1021 -31 66 -78
114 -142 146 l-57 28 -960 2 c-901 2 -963 1 -1012 -15z m2003 -44 c52 -29 93
-68 122 -117 l27 -46 3 -949 c3 -1053 5 -1014 -63 -1093 -19 -23 -56 -52 -83
-65 l-47 -23 -965 0 -965 0 -47 23 c-61 30 -114 93 -133 156 -22 72 -22 1878
-1 1949 26 86 90 150 174 173 37 10 253 13 997 11 876 -2 952 -3 981 -19z"/>
<path d="M515 2601 c-51 -23 -111 -89 -124 -138 -7 -25 -11 -344 -11 -973 0
-890 1 -937 19 -975 10 -22 34 -54 52 -72 70 -67 11 -63 1051 -63 894 0 945 1
984 19 49 23 107 88 122 140 15 50 17 1868 2 1922 -13 48 -75 118 -124 140
-39 18 -89 19 -986 19 -893 0 -947 -1 -985 -19z m1960 -40 c48 -22 69 -44 90
-94 13 -32 15 -152 15 -967 0 -815 -2 -935 -15 -967 -21 -50 -42 -72 -90 -94
-38 -18 -89 -19 -973 -19 -817 0 -937 2 -969 15 -50 21 -72 42 -94 90 -18 38
-19 89 -19 973 0 817 2 937 15 969 21 50 42 72 90 94 38 18 89 19 975 19 886
0 937 -1 975 -19z"/>
<path d="M1760 2320 c-11 -11 -20 -29 -20 -40 0 -11 9 -29 20 -40 19 -18 33
-20 198 -20 l178 0 -198 -198 c-207 -207 -218 -222 -178 -262 40 -40 55 -29
262 178 l198 198 0 -178 c0 -165 2 -179 20 -198 11 -11 29 -20 40 -20 11 0 29
9 40 20 19 19 20 33 20 280 0 247 -1 261 -20 280 -19 19 -33 20 -280 20 -247
0 -261 -1 -280 -20z m530 -39 c12 -24 14 -460 1 -480 -23 -36 -31 5 -31 154 0
147 -1 155 -23 181 l-24 27 -34 -21 c-19 -11 -108 -95 -198 -186 -152 -154
-191 -185 -191 -154 0 6 78 91 173 187 96 97 179 187 186 199 11 21 10 27 -10
48 -22 23 -27 24 -180 24 -151 0 -179 5 -164 30 4 6 97 10 245 10 226 0 240
-1 250 -19z"/>
<path d="M680 1240 c-19 -19 -20 -33 -20 -280 0 -247 1 -261 20 -280 19 -19
33 -20 280 -20 247 0 261 1 280 20 27 27 26 65 -2 84 -18 13 -55 16 -198 16
l-176 0 198 198 c208 208 222 228 180 265 -41 37 -58 25 -264 -181 l-198 -198
0 176 c0 143 -3 180 -16 198 -19 28 -57 29 -84 2z m58 -191 c3 -201 19 -234
91 -185 20 14 108 98 196 186 149 150 185 178 185 147 0 -7 -74 -87 -165 -177
-91 -91 -175 -180 -187 -198 l-20 -33 23 -25 c22 -23 26 -24 173 -24 150 0
198 -9 166 -30 -23 -15 -473 -13 -488 2 -13 13 -18 479 -5 492 22 21 28 -11
31 -155z"/>
</g>
</svg>
