<?xml version="1.0" standalone="no"?>
<!DOCTYPE svg PUBLIC "-//W3C//DTD SVG 20010904//EN"
 "http://www.w3.org/TR/2001/REC-SVG-20010904/DTD/svg10.dtd">
<svg version="1.0" xmlns="http://www.w3.org/2000/svg"
 width="300.000000pt" height="300.000000pt" viewBox="0 0 300.000000 300.000000"
 preserveAspectRatio="xMidYMid meet">
<metadata>
Created by potrace 1.10, written by Peter Selinger 2001-2011
</metadata>
<g transform="translate(0.000000,300.000000) scale(0.100000,-0.100000)"
fill="#000000" stroke="none">
<path d="M543 2923 c-18 -7 -16 -30 8 -131 21 -87 39 -115 64 -106 24 10 24
30 -2 130 -27 107 -36 121 -70 107z"/>
<path d="M812 2853 c-5 -10 -17 -44 -27 -76 -16 -51 -16 -60 -3 -73 26 -26 47
-5 69 68 11 38 18 76 15 84 -8 20 -44 17 -54 -3z"/>
<path d="M347 2753 c-14 -13 -5 -40 29 -86 26 -36 41 -47 57 -45 34 5 32 34
-8 88 -33 46 -61 61 -78 43z"/>
<path d="M1070 2636 c-365 -39 -529 -82 -574 -151 -9 -14 -32 -78 -51 -143
-19 -65 -73 -225 -120 -355 -116 -323 -137 -404 -138 -542 -1 -128 16 -205 69
-310 46 -91 69 -121 366 -476 322 -387 428 -502 502 -548 57 -35 63 -36 150
-36 81 0 108 6 246 50 85 27 251 74 369 104 252 66 262 72 191 129 -95 77
-331 323 -450 471 -69 85 -128 159 -132 165 -4 8 61 11 215 12 237 1 346 13
555 60 201 45 480 147 525 193 44 43 7 116 -65 128 -29 4 -38 9 -33 21 3 8 8
193 12 411 4 296 3 407 -7 441 -16 60 -111 154 -200 197 -120 58 -386 127
-638 164 -178 26 -607 34 -792 15z m545 -56 c338 -23 689 -97 858 -182 119
-59 186 -149 167 -220 -14 -49 -40 -79 -105 -123 -171 -113 -456 -175 -804
-175 -449 0 -739 73 -847 215 -32 42 -43 119 -24 165 28 67 122 123 265 156
69 16 122 19 380 19 314 0 435 -11 615 -56 93 -23 217 -85 244 -122 19 -26 19
-30 6 -55 -35 -61 -144 -102 -378 -142 -129 -23 -301 -26 -513 -10 -222 17
-325 47 -350 104 -23 49 38 111 128 130 43 10 58 29 43 56 -9 18 -17 20 -43
15 -94 -20 -178 -81 -193 -141 -24 -96 48 -171 196 -203 74 -16 373 -41 490
-41 160 0 448 51 554 99 61 26 114 77 125 119 23 80 -41 152 -185 212 -191 79
-598 123 -934 101 -288 -19 -454 -89 -515 -217 -14 -30 -20 -70 -23 -171 l-5
-132 -89 127 c-123 174 -139 204 -141 255 -4 93 40 124 228 160 300 58 567 76
850 57z m-1093 -352 c14 -30 306 -438 577 -808 248 -338 476 -630 602 -771 38
-42 65 -79 62 -83 -3 -3 -15 -6 -26 -6 -11 0 -37 -17 -57 -38 -37 -37 -40 -38
-67 -23 -68 35 -184 9 -246 -57 -26 -27 -30 -28 -67 -18 -72 19 -184 -29 -212
-90 -6 -13 -14 -24 -17 -23 -3 0 -56 60 -118 132 l-111 132 66 39 c37 21 131
70 209 108 79 38 145 73 148 78 8 12 -4 38 -21 44 -17 7 -264 -109 -368 -172
-37 -23 -71 -42 -75 -42 -4 0 -57 57 -118 128 -61 70 -123 140 -137 156 -15
15 -26 29 -24 31 2 1 28 15 58 30 142 71 320 210 320 250 0 45 -36 41 -93 -11
-75 -67 -181 -140 -263 -182 l-72 -35 -33 38 c-65 72 -120 150 -148 209 l-29
60 40 80 c47 94 128 222 182 285 39 47 42 67 13 85 -16 9 -24 5 -54 -29 -42
-48 -115 -158 -161 -240 l-33 -60 5 66 c8 100 38 206 130 457 46 125 90 246
97 270 6 23 15 42 19 42 3 0 13 -15 22 -32z m2119 -502 c-7 -176 -14 -328 -17
-337 -7 -24 -221 -159 -252 -159 -6 0 -8 28 -5 63 9 137 20 433 16 444 -7 18
-35 25 -49 11 -9 -9 -16 -94 -24 -278 -6 -146 -15 -268 -18 -272 -17 -17 -306
-77 -317 -66 -2 2 -1 91 4 198 8 204 5 223 -33 218 -20 -3 -22 -12 -29 -133
-4 -71 -10 -167 -13 -212 l-6 -83 -184 0 -184 0 5 43 c2 23 7 106 10 183 4
122 3 143 -11 155 -11 9 -20 10 -32 2 -16 -10 -26 -114 -31 -320 l-1 -53 -39
0 -40 0 -163 223 c-91 122 -217 295 -281 384 l-117 163 0 76 0 77 43 -40 c136
-125 361 -184 762 -199 269 -11 520 19 711 82 103 34 224 97 266 138 18 18 35
29 37 23 2 -5 -2 -154 -8 -331z m-2386 -316 c8 -12 -3 -50 -15 -50 -10 0 -21
40 -14 52 7 11 22 10 29 -2z m2458 -60 c52 -23 60 -31 51 -54 -20 -52 -411
-182 -664 -220 -52 -8 -115 -18 -140 -21 -25 -4 -137 -8 -250 -9 -158 -2 -210
-6 -228 -17 -22 -13 -25 -12 -48 14 -31 36 -30 47 3 47 14 0 34 7 44 16 17 15
20 15 45 -5 25 -19 39 -21 194 -21 153 0 169 2 193 20 25 20 27 20 52 4 25
-16 32 -16 123 0 141 25 195 43 226 75 23 24 34 28 64 24 30 -3 52 4 121 44
45 26 99 64 120 84 20 21 39 38 42 38 4 1 27 -8 52 -19z m-2248 -384 c11 -3
27 -23 36 -44 20 -45 251 -309 284 -324 13 -6 26 -21 29 -34 10 -40 226 -284
252 -284 6 0 17 -14 24 -30 24 -57 122 -119 188 -120 17 0 32 -4 32 -8 0 -15
-73 -13 -124 4 -83 28 -180 131 -636 678 -179 215 -263 334 -159 225 30 -31
63 -59 74 -63z m1455 -548 l89 -83 -327 -82 c-186 -47 -349 -82 -378 -83 -54
0 -136 34 -169 70 -17 19 -17 21 6 55 41 59 112 80 185 53 32 -11 34 -10 81
39 35 38 58 53 86 58 49 9 99 -1 131 -26 33 -26 59 -18 74 25 15 40 64 69 105
61 17 -3 63 -37 117 -87z"/>
<path d="M1473 2274 c-11 -28 24 -82 67 -104 67 -34 227 -56 325 -43 92 11
130 30 146 71 14 37 -4 74 -34 70 -15 -2 -23 -11 -25 -30 -2 -14 -11 -29 -20
-33 -38 -16 -180 -17 -263 -2 -94 16 -139 38 -139 68 0 24 -48 26 -57 3z"/>
<path d="M490 1523 c-77 -53 -75 -146 5 -174 23 -9 35 -19 35 -31 0 -32 45
-68 85 -68 65 0 124 84 77 109 -21 11 -35 4 -51 -26 -13 -25 -31 -29 -48 -12
-9 9 -8 19 3 41 12 23 13 33 3 44 -14 17 -41 18 -56 3 -15 -15 -55 7 -51 28 2
9 16 24 32 33 37 20 42 33 21 54 -20 20 -25 20 -55 -1z"/>
<path d="M847 1072 c-61 -61 -69 -85 -37 -102 16 -8 23 -7 37 10 23 27 33 25
33 -5 0 -34 24 -80 52 -99 35 -25 94 -20 123 9 33 32 35 91 3 101 -21 6 -53
-20 -43 -36 8 -13 -22 -31 -39 -24 -9 4 -24 20 -32 36 -13 24 -13 39 -4 84 9
42 9 58 0 69 -20 24 -33 18 -93 -43z"/>
<path d="M1197 668 c-10 -29 69 -145 115 -169 43 -23 66 37 25 64 -13 9 -39
38 -56 66 -24 37 -39 51 -56 51 -13 0 -25 -6 -28 -12z"/>
<path d="M1794 445 c-4 -9 -2 -21 4 -27 15 -15 44 -1 40 19 -4 23 -36 29 -44
8z"/>
<path d="M1545 338 c-64 -21 -95 -42 -95 -65 0 -21 48 -20 128 5 64 19 91 44
72 67 -16 19 -31 18 -105 -7z"/>
<path d="M1230 295 c-10 -12 -10 -18 0 -29 16 -20 42 -8 38 17 -4 26 -21 32
-38 12z"/>
</g>
</svg>
