<?xml version="1.0" standalone="no"?>
<!DOCTYPE svg PUBLIC "-//W3C//DTD SVG 20010904//EN"
 "http://www.w3.org/TR/2001/REC-SVG-20010904/DTD/svg10.dtd">
<svg version="1.0" xmlns="http://www.w3.org/2000/svg"
 width="300.000000pt" height="300.000000pt" viewBox="0 0 300.000000 300.000000"
 preserveAspectRatio="xMidYMid meet">
<metadata>
Created by potrace 1.10, written by Peter Selinger 2001-2011
</metadata>
<g transform="translate(0.000000,300.000000) scale(0.100000,-0.100000)"
fill="#000000" stroke="none">
<path d="M860 2990 c-19 -3 -45 -12 -57 -18 -29 -16 -522 -628 -540 -671 -35
-82 8 -190 89 -230 36 -17 63 -21 146 -21 l102 0 0 -616 c0 -681 -2 -660 64
-707 29 -21 43 -22 226 -25 187 -2 197 -1 234 20 79 47 76 15 76 710 l0 618
102 0 c82 0 110 4 144 20 82 40 126 149 92 230 -21 50 -513 657 -546 673 -36
18 -89 25 -132 17z m89 -41 c39 -23 103 -96 286 -322 130 -161 243 -304 251
-320 21 -39 20 -109 -1 -144 -21 -36 -64 -63 -97 -62 -20 1 -21 2 -3 6 32 8
74 42 90 73 21 40 19 79 -6 119 -33 54 -464 585 -499 614 -45 38 -98 37 -144
-3 -38 -34 -430 -516 -483 -594 -20 -29 -33 -60 -33 -80 0 -46 34 -94 83 -116
35 -16 38 -20 17 -20 -31 0 -79 31 -96 62 -20 36 -17 118 5 155 11 17 123 160
250 316 170 210 243 293 278 315 26 17 49 31 50 31 2 1 25 -13 52 -30z m-1
-66 c12 -10 129 -152 261 -317 247 -305 256 -320 229 -369 -22 -42 -38 -46
-175 -47 -106 0 -135 -3 -147 -16 -14 -14 -16 -87 -16 -659 0 -572 -2 -645
-16 -659 -23 -24 -345 -24 -368 0 -14 14 -16 87 -16 659 0 572 -2 645 -16 659
-12 13 -41 16 -147 16 -137 1 -153 5 -175 47 -27 49 -17 64 228 369 133 165
250 307 262 317 11 9 33 17 48 17 15 0 37 -8 48 -17z m-298 -792 c13 -25 13
-420 0 -441 -6 -10 -10 54 -10 189 0 196 -1 206 -22 228 -12 13 -29 23 -37 23
-14 0 -14 1 -1 10 25 16 59 11 70 -9z m580 9 l25 -8 -24 -1 c-14 -1 -35 -11
-48 -23 -23 -21 -23 -25 -23 -225 0 -134 -3 -202 -10 -198 -15 9 -13 438 2
453 13 13 40 14 78 2z m-80 -1084 l0 -213 -26 -27 c-15 -14 -35 -26 -45 -26
-15 0 -10 8 21 36 l40 36 0 204 c0 112 2 204 5 204 3 0 5 -96 5 -214z m-469
-213 c8 -12 29 -29 45 -38 l29 -15 -26 0 c-38 0 -79 45 -78 84 1 24 2 27 7 11
4 -11 14 -30 23 -42z"/>
<path d="M1913 2990 c-47 -11 -78 -34 -97 -73 -14 -31 -16 -99 -16 -651 l0
-616 -102 0 c-82 0 -110 -4 -144 -20 -78 -38 -122 -140 -95 -222 6 -19 125
-176 264 -349 269 -335 295 -359 377 -359 83 1 101 18 370 351 139 173 260
330 268 349 34 81 -9 189 -90 229 -36 17 -63 21 -146 21 l-102 0 0 615 c0 596
-1 617 -20 655 -11 22 -30 45 -42 51 -28 15 -88 29 -88 20 0 -3 23 -25 50 -49
l50 -43 -2 -217 -2 -217 -6 205 c-7 279 1 270 -240 270 -242 0 -233 10 -240
-275 l-6 -210 -2 221 c-2 246 -6 233 74 290 35 26 31 33 -13 24z m371 -106
c14 -14 16 -87 16 -659 0 -572 2 -645 16 -659 12 -13 41 -16 147 -16 88 -1
137 -5 148 -13 22 -17 39 -51 39 -80 0 -34 -492 -645 -526 -653 -13 -3 -35 -4
-48 0 -33 8 -526 620 -526 653 0 29 17 63 39 80 11 8 60 12 148 13 106 0 135
3 147 16 14 14 16 87 16 659 0 572 2 645 16 659 13 13 44 16 184 16 140 0 171
-3 184 -16z m-424 -1053 c0 -238 -3 -250 -55 -237 l-26 7 31 25 30 26 0 204
c0 134 3 203 10 199 6 -4 10 -90 10 -224z m531 -205 l30 -25 -26 -7 c-52 -13
-55 -1 -55 236 0 119 3 220 8 224 4 4 8 -85 10 -197 l2 -206 31 -25z m-801
-45 c-44 -23 -80 -75 -80 -116 0 -35 32 -89 111 -186 30 -37 124 -154 210
-260 186 -232 215 -259 269 -259 53 0 83 28 229 209 64 80 165 206 224 279
117 146 137 177 137 220 0 38 -37 91 -80 113 -30 17 -32 19 -11 19 14 0 39
-16 62 -39 36 -35 39 -43 39 -93 0 -43 -6 -64 -27 -96 -66 -97 -478 -594 -504
-607 -36 -19 -102 -19 -139 0 -26 13 -437 511 -505 610 -29 44 -34 119 -10
165 16 32 58 59 90 60 14 0 10 -5 -15 -19z"/>
<path d="M81 1083 c-40 -20 -71 -67 -71 -107 l0 -29 30 38 c44 55 60 64 111
65 36 0 52 -5 71 -25 24 -24 25 -30 31 -206 4 -100 7 -242 7 -316 0 -154 7
-176 73 -224 31 -23 36 -29 17 -24 -42 13 -78 44 -89 78 -12 35 -19 209 -20
473 l-1 170 -31 32 c-20 21 -41 32 -59 32 -30 0 -77 -41 -86 -74 -3 -12 -4
-163 -2 -336 l3 -315 26 -55 c32 -66 96 -133 164 -169 l50 -26 1195 0 1195 0
50 26 c63 34 129 100 163 164 l27 50 3 319 c2 175 1 328 -2 341 -14 56 -88 93
-126 62 -43 -35 -45 -44 -50 -261 l-6 -211 -2 223 -2 223 26 24 c21 19 38 25
75 25 45 0 50 -3 93 -52 46 -53 46 -53 46 -23 0 102 -138 160 -228 97 -59 -43
-62 -59 -62 -391 0 -211 -4 -308 -12 -326 -26 -58 30 -55 -1187 -55 -847 0
-1126 3 -1146 12 -52 24 -55 41 -55 370 0 276 -2 306 -19 338 -36 69 -129 98
-200 63z m99 -93 c13 -8 16 -60 20 -333 l5 -324 27 -40 c15 -22 44 -51 65 -64
l38 -24 1165 0 1165 0 38 24 c21 13 50 42 65 64 l27 40 5 324 c4 273 7 325 20
333 22 14 47 12 64 -6 14 -13 16 -57 16 -324 0 -292 -1 -313 -21 -367 -29 -76
-96 -143 -172 -172 l-58 -21 -1149 0 -1149 0 -58 21 c-76 29 -143 96 -172 172
-20 54 -21 75 -21 367 0 267 2 311 16 324 17 18 42 20 64 6z m2550 -674 c-21
-35 -74 -67 -107 -65 -16 1 -16 2 2 6 31 8 83 51 100 83 8 16 16 46 17 67 1
34 2 32 5 -10 3 -36 -1 -56 -17 -81z"/>
<path d="M13 329 c14 -153 163 -302 315 -315 53 -5 56 -4 38 10 -11 9 -44 25
-73 36 -115 43 -183 108 -229 218 -15 37 -34 76 -42 87 -13 18 -14 14 -9 -36z"/>
<path d="M2959 333 c-71 -167 -121 -223 -238 -267 -37 -15 -77 -34 -87 -42
-17 -14 -14 -15 38 -10 150 12 300 161 315 312 3 30 3 54 -1 54 -4 0 -16 -21
-27 -47z"/>
</g>
</svg>
