<?xml version="1.0" encoding="UTF-8"?>
<svg width="12px" height="12px" viewBox="0 0 12 12" version="1.1" xmlns="http://www.w3.org/2000/svg" xmlns:xlink="http://www.w3.org/1999/xlink">
    <title>F540CB57-A002-4BCA-9E10-9BAC3E8C4DE9</title>
    <g id="Visuals" stroke="none" stroke-width="1" fill="none" fill-rule="evenodd">
        <g id="Github" transform="translate(-1077.000000, -625.000000)">
            <g id="Group-9" transform="translate(1077.000000, 625.000000)">
                <circle id="Oval" stroke="#585858" stroke-width="0.8" cx="6" cy="6" r="5.6"></circle>
                <path d="M5.9778084,4.1187737 C6.1178305,4.1187737 6.23597414,4.0687737 6.33223934,3.9687737 C6.42850453,3.8687737 6.47663713,3.7468987 6.47663713,3.6031487 C6.47663713,3.4593987 6.42850453,3.3359612 6.33223934,3.2328362 C6.23597414,3.1297112 6.1178305,3.0781487 5.9778084,3.0781487 C5.84362055,3.0781487 5.72839403,3.1297112 5.63212884,3.2328362 C5.53586365,3.3359612 5.48773105,3.4593987 5.48773105,3.6031487 C5.48773105,3.7468987 5.53586365,3.8687737 5.63212884,3.9687737 C5.72839403,4.0687737 5.84362055,4.1187737 5.9778084,4.1187737 Z M6.00406254,9.0781487 C6.10907912,9.0781487 6.20534431,9.0406487 6.29285812,8.9656487 C6.38037193,8.8906487 6.42704597,8.7750237 6.43288022,8.6187737 L6.40662608,5.0656487 C6.37745481,4.9406487 6.32202939,4.8484612 6.24034983,4.7890862 C6.15867028,4.7297112 6.07115646,4.7000237 5.9778084,4.7000237 C5.87279182,4.7000237 5.78236088,4.7328362 5.70651558,4.7984612 C5.63067028,4.8640862 5.57816199,4.9625237 5.54899072,5.0937737 L5.57524486,8.6562737 C5.59274762,8.8000237 5.64233878,8.9062737 5.72401834,8.9750237 C5.8056979,9.0437737 5.89904597,9.0781487 6.00406254,9.0781487 Z" id="i" fill="#585858" fill-rule="nonzero"></path>
            </g>
        </g>
    </g>
</svg>